 <svg  version="1.0" xmlns="http://www.w3.org/2000/svg"  width="300.000000pt" height="300.000000pt" viewBox="0 0 300.000000 300.000000"  preserveAspectRatio="xMidYMid meet">  <g transform="translate(0.000000,300.000000) scale(0.100000,-0.100000)" fill="#004070" stroke="none"> <path d="M0 1500 l0 -1500 1500 0 1500 0 0 1500 0 1500 -1500 0 -1500 0 0 -1500z m1870 133 c0 -269 -4 -513 -9 -543 -24 -143 -106 -261 -219 -317 -53 -26 -66 -28 -177 -28 -109 0 -125 2 -176 26 -31 15 -74 43 -96 63 -71 63 -123 190 -123 296 l0 40 145 0 145 0 0 -37 c0 -96 41 -153 109 -153 43 1 62 13 87 60 18 33 19 66 22 558 l3 522 144 0 145 0 0 -487z"/> </g> </svg> 